<mxfile host="app.diagrams.net" agent="Mozilla/5.0 (Macintosh; Intel Mac OS X 10_15_7) AppleWebKit/605.1.15 (KHTML, like Gecko) Version/18.5 Safari/605.1.15" version="28.0.6">
  <diagram name="Seite-1" id="vaT7RohUxwtAHTEi_6MA">
    <mxGraphModel dx="2207" dy="1254" grid="1" gridSize="10" guides="1" tooltips="1" connect="1" arrows="1" fold="1" page="1" pageScale="1" pageWidth="827" pageHeight="1169" math="0" shadow="0">
      <root>
        <mxCell id="0" />
        <mxCell id="1" parent="0" />
        <mxCell id="QEbJEhpuCZWg6GKrFj1z-2" value="IKEA sensor&lt;div&gt;(particular matter&lt;/div&gt;&lt;div&gt;&amp;amp; pollen)&lt;/div&gt;" style="ellipse;whiteSpace=wrap;html=1;" vertex="1" parent="1">
          <mxGeometry x="160" y="320" width="120" height="80" as="geometry" />
        </mxCell>
        <mxCell id="QEbJEhpuCZWg6GKrFj1z-3" value="IKEA sensor&lt;div&gt;(particular matter&lt;/div&gt;&lt;div&gt;&amp;amp; pollen)&lt;/div&gt;" style="ellipse;whiteSpace=wrap;html=1;" vertex="1" parent="1">
          <mxGeometry x="160" y="200" width="120" height="80" as="geometry" />
        </mxCell>
        <mxCell id="QEbJEhpuCZWg6GKrFj1z-4" value="Temperatur sensor" style="ellipse;whiteSpace=wrap;html=1;" vertex="1" parent="1">
          <mxGeometry x="340" y="80" width="120" height="80" as="geometry" />
        </mxCell>
        <mxCell id="QEbJEhpuCZWg6GKrFj1z-5" value="Temperatur sensor" style="ellipse;whiteSpace=wrap;html=1;" vertex="1" parent="1">
          <mxGeometry x="340" y="440" width="120" height="80" as="geometry" />
        </mxCell>
        <mxCell id="QEbJEhpuCZWg6GKrFj1z-13" value="" style="edgeStyle=orthogonalEdgeStyle;rounded=0;orthogonalLoop=1;jettySize=auto;html=1;" edge="1" parent="1" source="QEbJEhpuCZWg6GKrFj1z-6" target="QEbJEhpuCZWg6GKrFj1z-4">
          <mxGeometry relative="1" as="geometry" />
        </mxCell>
        <mxCell id="QEbJEhpuCZWg6GKrFj1z-14" value="" style="edgeStyle=orthogonalEdgeStyle;rounded=0;orthogonalLoop=1;jettySize=auto;html=1;" edge="1" parent="1" source="QEbJEhpuCZWg6GKrFj1z-6" target="QEbJEhpuCZWg6GKrFj1z-3">
          <mxGeometry relative="1" as="geometry" />
        </mxCell>
        <mxCell id="QEbJEhpuCZWg6GKrFj1z-17" value="" style="edgeStyle=orthogonalEdgeStyle;rounded=0;orthogonalLoop=1;jettySize=auto;html=1;entryX=0.25;entryY=0;entryDx=0;entryDy=0;" edge="1" parent="1" source="QEbJEhpuCZWg6GKrFj1z-6" target="QEbJEhpuCZWg6GKrFj1z-8">
          <mxGeometry relative="1" as="geometry" />
        </mxCell>
        <mxCell id="QEbJEhpuCZWg6GKrFj1z-6" value="Arduino 1&lt;div&gt;DHBW MarienstraÃŸe&amp;nbsp;&lt;/div&gt;" style="rounded=0;whiteSpace=wrap;html=1;" vertex="1" parent="1">
          <mxGeometry x="320" y="200" width="160" height="80" as="geometry" />
        </mxCell>
        <mxCell id="QEbJEhpuCZWg6GKrFj1z-15" value="" style="edgeStyle=orthogonalEdgeStyle;rounded=0;orthogonalLoop=1;jettySize=auto;html=1;" edge="1" parent="1" source="QEbJEhpuCZWg6GKrFj1z-7" target="QEbJEhpuCZWg6GKrFj1z-2">
          <mxGeometry relative="1" as="geometry" />
        </mxCell>
        <mxCell id="QEbJEhpuCZWg6GKrFj1z-16" value="" style="edgeStyle=orthogonalEdgeStyle;rounded=0;orthogonalLoop=1;jettySize=auto;html=1;entryX=0.25;entryY=1;entryDx=0;entryDy=0;" edge="1" parent="1" source="QEbJEhpuCZWg6GKrFj1z-7" target="QEbJEhpuCZWg6GKrFj1z-8">
          <mxGeometry relative="1" as="geometry" />
        </mxCell>
        <mxCell id="QEbJEhpuCZWg6GKrFj1z-19" value="" style="edgeStyle=orthogonalEdgeStyle;rounded=0;orthogonalLoop=1;jettySize=auto;html=1;" edge="1" parent="1" source="QEbJEhpuCZWg6GKrFj1z-7" target="QEbJEhpuCZWg6GKrFj1z-5">
          <mxGeometry relative="1" as="geometry" />
        </mxCell>
        <mxCell id="QEbJEhpuCZWg6GKrFj1z-7" value="Arduino 2&lt;div&gt;DHBW Hans-Voith-Campus&amp;nbsp;&lt;/div&gt;" style="rounded=0;whiteSpace=wrap;html=1;" vertex="1" parent="1">
          <mxGeometry x="320" y="320" width="160" height="80" as="geometry" />
        </mxCell>
        <mxCell id="QEbJEhpuCZWg6GKrFj1z-21" value="" style="edgeStyle=orthogonalEdgeStyle;rounded=0;orthogonalLoop=1;jettySize=auto;html=1;" edge="1" parent="1" source="QEbJEhpuCZWg6GKrFj1z-8" target="QEbJEhpuCZWg6GKrFj1z-9">
          <mxGeometry relative="1" as="geometry" />
        </mxCell>
        <mxCell id="QEbJEhpuCZWg6GKrFj1z-8" value="MQTT Server" style="rounded=0;whiteSpace=wrap;html=1;" vertex="1" parent="1">
          <mxGeometry x="520" y="260" width="160" height="80" as="geometry" />
        </mxCell>
        <mxCell id="QEbJEhpuCZWg6GKrFj1z-22" value="" style="edgeStyle=orthogonalEdgeStyle;rounded=0;orthogonalLoop=1;jettySize=auto;html=1;exitX=0.25;exitY=1;exitDx=0;exitDy=0;entryX=0.25;entryY=0;entryDx=0;entryDy=0;" edge="1" parent="1" source="QEbJEhpuCZWg6GKrFj1z-9" target="QEbJEhpuCZWg6GKrFj1z-11">
          <mxGeometry relative="1" as="geometry" />
        </mxCell>
        <mxCell id="QEbJEhpuCZWg6GKrFj1z-23" value="" style="edgeStyle=orthogonalEdgeStyle;rounded=0;orthogonalLoop=1;jettySize=auto;html=1;exitX=0.75;exitY=1;exitDx=0;exitDy=0;entryX=0.75;entryY=0;entryDx=0;entryDy=0;" edge="1" parent="1" source="QEbJEhpuCZWg6GKrFj1z-9" target="QEbJEhpuCZWg6GKrFj1z-11">
          <mxGeometry relative="1" as="geometry">
            <Array as="points">
              <mxPoint x="840" y="370" />
              <mxPoint x="840" y="370" />
            </Array>
          </mxGeometry>
        </mxCell>
        <mxCell id="QEbJEhpuCZWg6GKrFj1z-24" value="" style="edgeStyle=orthogonalEdgeStyle;rounded=0;orthogonalLoop=1;jettySize=auto;html=1;" edge="1" parent="1" source="QEbJEhpuCZWg6GKrFj1z-9" target="QEbJEhpuCZWg6GKrFj1z-10">
          <mxGeometry relative="1" as="geometry" />
        </mxCell>
        <mxCell id="QEbJEhpuCZWg6GKrFj1z-9" value="Backend&lt;div&gt;(Flask)&lt;/div&gt;" style="rounded=0;whiteSpace=wrap;html=1;" vertex="1" parent="1">
          <mxGeometry x="720" y="260" width="160" height="80" as="geometry" />
        </mxCell>
        <mxCell id="QEbJEhpuCZWg6GKrFj1z-10" value="Frontend&lt;div&gt;(React)&lt;/div&gt;" style="rounded=0;whiteSpace=wrap;html=1;" vertex="1" parent="1">
          <mxGeometry x="920" y="260" width="160" height="80" as="geometry" />
        </mxCell>
        <mxCell id="QEbJEhpuCZWg6GKrFj1z-11" value="Datenbank&lt;div&gt;(TimescaleDB)&lt;/div&gt;" style="rounded=0;whiteSpace=wrap;html=1;" vertex="1" parent="1">
          <mxGeometry x="720" y="380" width="160" height="80" as="geometry" />
        </mxCell>
        <mxCell id="QEbJEhpuCZWg6GKrFj1z-12" value="Container (Docker)" style="swimlane;whiteSpace=wrap;html=1;" vertex="1" parent="1">
          <mxGeometry x="700" y="210" width="410" height="270" as="geometry" />
        </mxCell>
      </root>
    </mxGraphModel>
  </diagram>
</mxfile>
